<svg width="149" height="28" viewBox="0 0 149 28" fill="none" xmlns="http://www.w3.org/2000/svg">
<path d="M0.152 14.256C0.152 11.76 0.668 9.54 1.7 7.596C2.756 5.628 4.244 4.104 6.164 3.024C8.084 1.92 10.292 1.368 12.788 1.368C15.956 1.368 18.62 2.22 20.78 3.924C22.94 5.604 24.332 7.896 24.956 10.8H17.36C16.904 9.84 16.268 9.108 15.452 8.604C14.66 8.1 13.736 7.848 12.68 7.848C11.048 7.848 9.74 8.436 8.756 9.612C7.796 10.764 7.316 12.312 7.316 14.256C7.316 16.224 7.796 17.796 8.756 18.972C9.74 20.124 11.048 20.7 12.68 20.7C13.736 20.7 14.66 20.448 15.452 19.944C16.268 19.44 16.904 18.708 17.36 17.748H24.956C24.332 20.652 22.94 22.956 20.78 24.66C18.62 26.34 15.956 27.18 12.788 27.18C10.292 27.18 8.084 26.64 6.164 25.56C4.244 24.456 2.756 22.932 1.7 20.988C0.668 19.02 0.152 16.776 0.152 14.256ZM32.2933 27.252C30.2773 27.252 28.4653 26.832 26.8573 25.992C25.2733 25.152 24.0253 23.952 23.1133 22.392C22.2013 20.832 21.7453 18.996 21.7453 16.884C21.7453 14.796 22.2013 12.972 23.1133 11.412C24.0493 9.852 25.3093 8.652 26.8933 7.812C28.5013 6.972 30.3133 6.552 32.3293 6.552C34.3453 6.552 36.1453 6.972 37.7293 7.812C39.3373 8.652 40.5973 9.852 41.5093 11.412C42.4453 12.972 42.9133 14.796 42.9133 16.884C42.9133 18.972 42.4453 20.808 41.5093 22.392C40.5973 23.952 39.3373 25.152 37.7293 25.992C36.1213 26.832 34.3093 27.252 32.2933 27.252ZM32.2933 21.132C33.2773 21.132 34.0933 20.772 34.7413 20.052C35.4133 19.308 35.7493 18.252 35.7493 16.884C35.7493 15.516 35.4133 14.472 34.7413 13.752C34.0933 13.032 33.2893 12.672 32.3293 12.672C31.3693 12.672 30.5653 13.032 29.9173 13.752C29.2693 14.472 28.9453 15.516 28.9453 16.884C28.9453 18.276 29.2573 19.332 29.8813 20.052C30.5053 20.772 31.3093 21.132 32.2933 21.132ZM39.232 16.884C39.232 14.796 39.664 12.972 40.528 11.412C41.392 9.852 42.592 8.652 44.128 7.812C45.688 6.972 47.464 6.552 49.456 6.552C52.024 6.552 54.184 7.26 55.936 8.676C57.688 10.068 58.816 12.024 59.32 14.544H51.832C51.4 13.224 50.56 12.564 49.312 12.564C48.424 12.564 47.716 12.936 47.188 13.68C46.684 14.4 46.432 15.468 46.432 16.884C46.432 18.3 46.684 19.38 47.188 20.124C47.716 20.868 48.424 21.24 49.312 21.24C50.584 21.24 51.424 20.58 51.832 19.26H59.32C58.816 21.756 57.688 23.712 55.936 25.128C54.184 26.544 52.024 27.252 49.456 27.252C47.464 27.252 45.688 26.832 44.128 25.992C42.592 25.152 41.392 23.952 40.528 22.392C39.664 20.832 39.232 18.996 39.232 16.884ZM66.2472 27.252C64.2312 27.252 62.4192 26.832 60.8112 25.992C59.2272 25.152 57.9792 23.952 57.0672 22.392C56.1552 20.832 55.6992 18.996 55.6992 16.884C55.6992 14.796 56.1552 12.972 57.0672 11.412C58.0032 9.852 59.2632 8.652 60.8472 7.812C62.4552 6.972 64.2672 6.552 66.2832 6.552C68.2992 6.552 70.0992 6.972 71.6832 7.812C73.2912 8.652 74.5512 9.852 75.4632 11.412C76.3992 12.972 76.8672 14.796 76.8672 16.884C76.8672 18.972 76.3992 20.808 75.4632 22.392C74.5512 23.952 73.2912 25.152 71.6832 25.992C70.0752 26.832 68.2632 27.252 66.2472 27.252ZM66.2472 21.132C67.2312 21.132 68.0472 20.772 68.6952 20.052C69.3672 19.308 69.7032 18.252 69.7032 16.884C69.7032 15.516 69.3672 14.472 68.6952 13.752C68.0472 13.032 67.2432 12.672 66.2832 12.672C65.3232 12.672 64.5192 13.032 63.8712 13.752C63.2232 14.472 62.8992 15.516 62.8992 16.884C62.8992 18.276 63.2112 19.332 63.8352 20.052C64.4592 20.772 65.2632 21.132 66.2472 21.132ZM73.1859 16.884C73.1859 14.796 73.5579 12.972 74.3019 11.412C75.0699 9.852 76.1019 8.652 77.3979 7.812C78.7179 6.972 80.1819 6.552 81.7899 6.552C83.1819 6.552 84.3819 6.828 85.3899 7.38C86.3979 7.932 87.1779 8.676 87.7299 9.612V6.804H94.7859V27H87.7299V24.192C87.1779 25.128 86.3859 25.872 85.3539 26.424C84.3459 26.976 83.1579 27.252 81.7899 27.252C80.1819 27.252 78.7179 26.832 77.3979 25.992C76.1019 25.152 75.0699 23.952 74.3019 22.392C73.5579 20.808 73.1859 18.972 73.1859 16.884ZM87.7299 16.884C87.7299 15.588 87.3699 14.568 86.6499 13.824C85.9539 13.08 85.0899 12.708 84.0579 12.708C83.0019 12.708 82.1259 13.08 81.4299 13.824C80.7339 14.544 80.3859 15.564 80.3859 16.884C80.3859 18.18 80.7339 19.212 81.4299 19.98C82.1259 20.724 83.0019 21.096 84.0579 21.096C85.0899 21.096 85.9539 20.724 86.6499 19.98C87.3699 19.236 87.7299 18.204 87.7299 16.884Z" fill="#4F3835"/>
<path d="M92.2546 16.884C92.2546 14.796 92.6266 12.972 93.3706 11.412C94.1386 9.852 95.1826 8.652 96.5026 7.812C97.8226 6.972 99.2866 6.552 100.895 6.552C102.191 6.552 103.343 6.828 104.351 7.38C105.383 7.908 106.187 8.64 106.763 9.576V0.36H113.855V27H106.763V24.192C106.211 25.128 105.431 25.872 104.423 26.424C103.415 26.976 102.227 27.252 100.859 27.252C99.2506 27.252 97.7866 26.832 96.4666 25.992C95.1706 25.152 94.1386 23.952 93.3706 22.392C92.6266 20.808 92.2546 18.972 92.2546 16.884ZM106.799 16.884C106.799 15.588 106.439 14.568 105.719 13.824C105.023 13.08 104.159 12.708 103.127 12.708C102.071 12.708 101.195 13.08 100.499 13.824C99.8026 14.544 99.4546 15.564 99.4546 16.884C99.4546 18.18 99.8026 19.212 100.499 19.98C101.195 20.724 102.071 21.096 103.127 21.096C104.159 21.096 105.023 20.724 105.719 19.98C106.439 19.236 106.799 18.204 106.799 16.884ZM131.771 16.668C131.771 17.22 131.735 17.772 131.663 18.324H118.307C118.379 19.428 118.679 20.256 119.207 20.808C119.759 21.336 120.455 21.6 121.295 21.6C122.471 21.6 123.311 21.072 123.815 20.016H131.339C131.027 21.408 130.415 22.656 129.503 23.76C128.615 24.84 127.487 25.692 126.119 26.316C124.751 26.94 123.239 27.252 121.583 27.252C119.591 27.252 117.815 26.832 116.255 25.992C114.719 25.152 113.507 23.952 112.619 22.392C111.755 20.832 111.323 18.996 111.323 16.884C111.323 14.772 111.755 12.948 112.619 11.412C113.483 9.852 114.683 8.652 116.219 7.812C117.779 6.972 119.567 6.552 121.583 6.552C123.575 6.552 125.339 6.96 126.875 7.776C128.411 8.592 129.611 9.768 130.475 11.304C131.339 12.816 131.771 14.604 131.771 16.668ZM124.571 14.904C124.571 14.04 124.283 13.368 123.707 12.888C123.131 12.384 122.411 12.132 121.547 12.132C120.683 12.132 119.975 12.372 119.423 12.852C118.871 13.308 118.511 13.992 118.343 14.904H124.571ZM128.107 16.884C128.107 14.796 128.539 12.972 129.403 11.412C130.267 9.852 131.467 8.652 133.003 7.812C134.563 6.972 136.339 6.552 138.331 6.552C140.899 6.552 143.059 7.26 144.811 8.676C146.563 10.068 147.691 12.024 148.195 14.544H140.707C140.275 13.224 139.435 12.564 138.187 12.564C137.299 12.564 136.591 12.936 136.063 13.68C135.559 14.4 135.307 15.468 135.307 16.884C135.307 18.3 135.559 19.38 136.063 20.124C136.591 20.868 137.299 21.24 138.187 21.24C139.459 21.24 140.299 20.58 140.707 19.26H148.195C147.691 21.756 146.563 23.712 144.811 25.128C143.059 26.544 140.899 27.252 138.331 27.252C136.339 27.252 134.563 26.832 133.003 25.992C131.467 25.152 130.267 23.952 129.403 22.392C128.539 20.832 128.107 18.996 128.107 16.884Z" fill="#53B757"/>
</svg>
