<svg width="24" height="24" viewBox="0 0 24 24" fill="none" xmlns="http://www.w3.org/2000/svg">
<path d="M14.1988 12.0197L23.5439 2.6743C24.1521 2.06642 24.1521 1.08356 23.5439 0.475685C22.936 -0.132194 21.9532 -0.132194 21.3453 0.475685L11.9999 9.82108L2.65475 0.475685C2.04658 -0.132194 1.06401 -0.132194 0.456124 0.475685C-0.152041 1.08356 -0.152041 2.06642 0.456124 2.6743L9.80126 12.0197L0.456124 21.3651C-0.152041 21.973 -0.152041 22.9558 0.456124 23.5637C0.759068 23.8669 1.15739 24.0193 1.55543 24.0193C1.95348 24.0193 2.35152 23.8669 2.65475 23.5637L11.9999 14.2183L21.3453 23.5637C21.6485 23.8669 22.0466 24.0193 22.4446 24.0193C22.8427 24.0193 23.2407 23.8669 23.5439 23.5637C24.1521 22.9558 24.1521 21.973 23.5439 21.3651L14.1988 12.0197Z" fill="white"/>
</svg>
